<svg xmlns="http://www.w3.org/2000/svg" width="53" height="54" fill="none" viewBox="0 0 53 54">
  <path fill="#fff" d="M38.665 1.5C41.5-.153 45.396.612 48.142 3.358c2.747 2.746 3.51 6.64 1.858 9.478-2.086 3.581 3.896 14.221-5.5 26.055l-3.563-3.05c8.318-10.6 1.508-19.34 5.017-25.365 1.32-2.266-2.71-6.223-4.93-4.93-6.504 3.788-16.176-4.453-27.938 7.309s-3.52 21.433-7.309 27.937c-1.322 2.27 2.716 6.22 4.931 4.93 3.99-2.323 9.17-.121 15.293-.785l4.491 3.877c-8.121 2.341-14.758-.6-17.424.954-2.837 1.652-6.731.89-9.479-1.857C.843 45.165.08 41.27 1.732 38.433c2.251-3.866-4.897-15.956 8.04-28.893 12.92-12.92 25.04-5.796 28.893-8.04Z"/>
  <path fill="#fff" d="M27.67 13.51a1.953 1.953 0 0 0-.484-3.876c-7.148.893-16.426 10.164-17.32 17.32a1.953 1.953 0 1 0 3.875.485c.67-5.356 8.574-13.26 13.93-13.93Z"/>
  <path stroke="#fff" stroke-linecap="round" stroke-linejoin="round" stroke-width="3" d="M51 46.853c-6.864 6.863-17.99 6.863-24.853 0-6.863-6.864-6.863-17.989 0-24.853L51 46.853Z"/>
  <path stroke="#fff" stroke-linecap="round" stroke-linejoin="round" stroke-width="3" d="M30.498 26.35A11.423 11.423 0 0 0 46.65 42.503m-8.077-8.078-8.078 8.078m8.078-8.078H27.391m11.183 0v11.183"/>
</svg>
